<svg width="60" height="60" viewBox="0 0 60 60" fill="none" xmlns="http://www.w3.org/2000/svg">
<g clip-path="url(#clip0_7_325)">
<path d="M58.9453 8.24463H1.05469C0.774967 8.24463 0.506703 8.35575 0.308911 8.55354C0.111119 8.75133 0 9.0196 0 9.29932L0 15.3019C0 18.1901 1.7448 20.6773 4.23516 21.7684V25.9902C4.23516 32.845 6.92274 39.3076 11.8027 44.1876C16.6826 49.0675 23.1452 51.7551 30 51.7551C36.8548 51.7551 43.3174 49.0675 48.1973 44.1876C53.0773 39.3076 55.7648 32.845 55.7648 25.9902V21.7684C58.2551 20.6774 60 18.1902 60 15.3019V9.29932C60 9.0196 59.8889 8.75133 59.6911 8.55354C59.4933 8.35575 59.225 8.24463 58.9453 8.24463ZM53.6555 25.9902C53.6555 39.034 43.0437 49.6457 30 49.6457C16.9563 49.6457 6.34453 39.034 6.34453 25.9902V22.3231C6.57891 22.3466 6.81668 22.3589 7.05727 22.3589H52.943C53.1836 22.3589 53.4212 22.3466 53.6557 22.3231V25.9902H53.6555ZM57.8906 15.3019C57.8906 18.03 55.6711 20.2497 52.9429 20.2497H7.05715C4.32891 20.2497 2.10938 18.03 2.10938 15.3019V10.354H57.8906V15.3019ZM30 30.2633C25.0931 30.2633 21.1011 34.2553 21.1011 39.1623C21.1011 44.0691 25.0931 48.0612 30 48.0612C34.9069 48.0612 38.8989 44.0692 38.8989 39.1623C38.8989 34.2553 34.9069 30.2633 30 30.2633ZM30 45.9517C26.2562 45.9517 23.2105 42.906 23.2105 39.1622C23.2105 35.4184 26.2562 32.3726 30 32.3726C33.7437 32.3726 36.7895 35.4183 36.7895 39.1622C36.7895 42.906 33.7438 45.9517 30 45.9517ZM30 34.3726C27.3591 34.3726 25.2104 36.5212 25.2104 39.1621C25.2104 41.803 27.3589 43.9517 30 43.9517C32.6409 43.9517 34.7895 41.803 34.7895 39.1621C34.7895 36.5212 32.6409 34.3726 30 34.3726ZM30 41.8424C28.5221 41.8424 27.3198 40.6401 27.3198 39.1622C27.3198 37.6845 28.5221 36.4821 30 36.4821C31.4779 36.4821 32.6801 37.6845 32.6801 39.1622C32.6802 40.6401 31.4779 41.8424 30 41.8424ZM45.9982 25.2388C44.1111 25.2388 42.5759 26.7741 42.5759 28.6612C42.5759 30.5482 44.1111 32.0835 45.9982 32.0835C47.8854 32.0835 49.4207 30.5482 49.4207 28.6612C49.4207 26.7741 47.8853 25.2388 45.9982 25.2388ZM45.9982 29.9741C45.2742 29.9741 44.6852 29.3851 44.6852 28.6612C44.6852 27.9372 45.2742 27.3482 45.9982 27.3482C46.7222 27.3482 47.3113 27.9372 47.3113 28.6612C47.3113 29.3851 46.7222 29.9741 45.9982 29.9741Z" fill="#A3887B"/>
</g>
<defs>
<clipPath id="clip0_7_325">
<rect width="60" height="60" fill="white"/>
</clipPath>
</defs>
</svg>
