<svg width="60" height="60" viewBox="0 0 60 60" fill="none" xmlns="http://www.w3.org/2000/svg">
<path fill-rule="evenodd" clip-rule="evenodd" d="M42.2721 17.4713C42.2721 17.6888 42.1857 17.8975 42.0319 18.0513C41.878 18.2052 41.6694 18.2916 41.4518 18.2916H18.5483C18.3308 18.2916 18.1221 18.2052 17.9683 18.0513C17.8144 17.8975 17.728 17.6888 17.728 17.4713C17.728 17.2537 17.8144 17.0451 17.9683 16.8912C18.1221 16.7374 18.3308 16.651 18.5483 16.651H41.4517C41.5594 16.651 41.6661 16.6722 41.7656 16.7134C41.8652 16.7546 41.9556 16.815 42.0318 16.8912C42.108 16.9674 42.1684 17.0578 42.2097 17.1573C42.2509 17.2569 42.2721 17.3636 42.2721 17.4713ZM58.4645 32.4898C58.296 34.7785 56.545 36.5045 54.3918 36.5045H5.60825C3.45493 36.5045 1.70403 34.7785 1.53528 32.4897C0.892624 23.7916 0.895319 17.6324 1.54383 13.6601C1.80575 12.0544 2.93333 10.9756 4.34977 10.9756H55.65C57.0662 10.9756 58.1939 12.0544 58.4559 13.6601C59.1046 17.6324 59.1074 23.7916 58.4645 32.4898ZM51.0645 30.235C51.0645 29.6696 50.6045 29.2096 50.0391 29.2096H9.96094C9.39551 29.2096 8.93555 29.6696 8.93555 30.235V34.8639H51.0645V30.235ZM56.837 13.9245C56.7384 13.321 56.3685 12.6162 55.6501 12.6162H4.34989C3.63141 12.6162 3.26157 13.321 3.16301 13.9244C2.53559 17.7678 2.53841 23.8009 3.17157 32.369C3.27798 33.8147 4.30278 34.8639 5.60825 34.8639H7.29493V30.235C7.29493 28.765 8.49094 27.569 9.96094 27.569H50.0391C51.5091 27.569 52.7051 28.765 52.7051 30.235V34.8639H54.3919C55.6972 34.8639 56.722 33.8147 56.8284 32.3691C57.4616 23.8011 57.4644 17.7678 56.837 13.9245ZM30 40.2545C29.7824 40.2545 29.5738 40.341 29.42 40.4948C29.2661 40.6486 29.1797 40.8573 29.1797 41.0748V48.2042C29.1797 48.4217 29.2661 48.6304 29.42 48.7842C29.5738 48.9381 29.7824 49.0245 30 49.0245C30.2176 49.0245 30.4262 48.9381 30.5801 48.7842C30.7339 48.6304 30.8203 48.4217 30.8203 48.2042V41.0748C30.8203 40.8573 30.7339 40.6486 30.5801 40.4948C30.4262 40.341 30.2176 40.2545 30 40.2545ZM22.954 40.2552C22.7366 40.2642 22.5317 40.3591 22.3843 40.5191C22.2369 40.6791 22.1591 40.8911 22.168 41.1085C22.2699 43.5914 21.5643 45.9937 20.232 47.6992C20.1374 47.8203 20.0787 47.9655 20.0626 48.1184C20.0465 48.2712 20.0737 48.4254 20.141 48.5636C20.2083 48.7017 20.3131 48.8181 20.4434 48.8996C20.5737 48.9811 20.7242 49.0243 20.8779 49.0244C21.0026 49.0246 21.1258 48.9963 21.2379 48.9416C21.35 48.887 21.4482 48.8074 21.5249 48.709C23.093 46.7016 23.9248 43.9068 23.8072 41.0411C23.7887 40.5885 23.4059 40.2373 22.954 40.2552ZM15.6118 40.2557C15.1601 40.2311 14.7735 40.5798 14.75 41.0322C14.6206 43.5175 13.691 45.871 12.1999 47.4893C12.0919 47.6065 12.0204 47.7526 11.9941 47.9098C11.9678 48.067 11.9878 48.2285 12.0518 48.3745C12.1157 48.5204 12.2208 48.6446 12.3542 48.7318C12.4876 48.8191 12.6435 48.8655 12.8029 48.8656C13.0241 48.8656 13.2447 48.7766 13.4063 48.6011C15.1522 46.7063 16.2393 43.9788 16.3882 41.1177C16.3938 41.0102 16.3782 40.9025 16.3422 40.801C16.3063 40.6994 16.2507 40.606 16.1786 40.5259C16.1065 40.4459 16.0193 40.3808 15.9221 40.3345C15.8248 40.2881 15.7194 40.2613 15.6118 40.2557ZM37.8321 41.1085C37.8398 40.8919 37.7614 40.681 37.6141 40.522C37.4668 40.363 37.2625 40.2688 37.0459 40.2599C36.8294 40.251 36.6181 40.3282 36.4583 40.4746C36.2984 40.621 36.203 40.8247 36.1929 41.0412C36.0752 43.9067 36.9073 46.7016 38.4754 48.7091C38.552 48.8075 38.6502 48.8871 38.7623 48.9417C38.8745 48.9964 38.9976 49.0247 39.1223 49.0245C39.276 49.0244 39.4266 48.9812 39.5568 48.8997C39.6871 48.8182 39.7919 48.7018 39.8592 48.5637C39.9266 48.4256 39.9537 48.2713 39.9377 48.1185C39.9216 47.9657 39.8629 47.8204 39.7683 47.6993C38.4359 45.9936 37.7303 43.5913 37.8321 41.1085ZM45.2502 41.0322C45.2266 40.5797 44.8404 40.2312 44.3884 40.2557C44.1712 40.267 43.9673 40.3642 43.8217 40.5258C43.6761 40.6874 43.6006 40.9003 43.6119 41.1175C43.761 43.9785 44.848 46.7061 46.5939 48.6009C46.6706 48.6844 46.7639 48.751 46.8678 48.7965C46.9716 48.8421 47.0839 48.8655 47.1973 48.8654C47.4032 48.8656 47.6017 48.7881 47.7529 48.6482C47.9128 48.5008 48.0077 48.2958 48.0166 48.0785C48.0255 47.8611 47.9476 47.6491 47.8002 47.4891C46.3093 45.8711 45.3798 43.5175 45.2502 41.0322ZM49.8893 16.3579C49.2762 16.3579 48.776 16.858 48.776 17.4712C48.776 18.0844 49.2762 18.5845 49.8893 18.5845C50.5025 18.5845 51.0026 18.0843 51.0026 17.4712C51.0026 16.858 50.5025 16.3579 49.8893 16.3579Z" fill="#A3887B"/>
</svg>
