<svg width="60" height="60" viewBox="0 0 60 60" fill="none" xmlns="http://www.w3.org/2000/svg">
<path d="M3.75 9.8222H56.25C56.7675 9.8222 57.1875 9.40783 57.1875 8.89595C57.1869 8.7735 57.1621 8.65237 57.1147 8.53948C57.0672 8.42659 56.998 8.32417 56.9109 8.23806C56.8238 8.15195 56.7207 8.08384 56.6073 8.03763C56.4939 7.99143 56.3725 7.96803 56.25 7.96877H3.75C3.2325 7.96877 2.8125 8.38314 2.8125 8.89595C2.8125 9.40783 3.2325 9.8222 3.75 9.8222ZM56.25 11.6766H3.75C3.2325 11.6766 2.8125 12.091 2.8125 12.6038C2.8125 13.1156 3.2325 13.53 3.75 13.53H19.9219V20.5322C19.9219 20.7853 20.0109 21.0347 20.1778 21.2381L26.9531 29.3878V29.9831H24.4641C24.1003 29.9831 23.7563 30.1585 23.5453 30.4519C23.3344 30.7453 23.2828 31.1269 23.4038 31.4653L27.0797 37.2553C27.2691 37.6238 27.6553 37.8619 28.0828 37.8619H31.9172C32.3447 37.8619 32.7309 37.6238 32.9203 37.2553L36.5044 31.6519L36.5962 31.4653C36.7181 31.126 36.6647 30.7472 36.4538 30.4528C36.2428 30.1585 35.9006 29.9831 35.535 29.9831H33.0469V29.3878L39.8259 21.2335C39.9891 21.0347 40.0781 20.7863 40.0781 20.5322V13.53H56.25C56.7675 13.53 57.1875 13.1156 57.1875 12.6038C57.187 12.4812 57.1624 12.36 57.115 12.247C57.0676 12.134 56.9983 12.0315 56.9112 11.9453C56.8242 11.8591 56.7209 11.7909 56.6075 11.7446C56.494 11.6983 56.3725 11.6758 56.25 11.6766ZM28.8281 13.53H31.1719V29.9831H28.8281V13.53ZM21.7969 20.2669V13.53H26.9531V26.4685L21.7969 20.2669ZM34.1681 31.8366L31.5 36.0094H28.5L25.8319 31.8375H33.0469L34.1681 31.8366ZM38.2031 20.2669L33.0469 26.4685V13.531H38.2031V20.2669ZM25.1972 39.7313C25.0786 39.6997 24.9549 39.6918 24.8332 39.708C24.7115 39.7242 24.5942 39.7642 24.488 39.8258C24.3818 39.8873 24.2888 39.9692 24.2142 40.0667C24.1396 40.1642 24.085 40.2755 24.0534 40.3941L23.1159 43.9566C23.0798 44.0945 23.0761 44.2389 23.105 44.3785C23.1338 44.5182 23.1945 44.6492 23.2824 44.7616C23.3702 44.8739 23.4827 44.9644 23.6113 45.0261C23.7398 45.0878 23.8809 45.119 24.0234 45.1172C24.4406 45.1172 24.8203 44.8416 24.9309 44.4235L25.8684 40.861C25.8991 40.7426 25.906 40.6194 25.8888 40.4984C25.8716 40.3774 25.8306 40.261 25.7682 40.1559C25.7058 40.0508 25.6232 39.9591 25.5252 39.886C25.4272 39.813 25.3157 39.761 25.1972 39.7313ZM36.8841 43.9566L35.9466 40.3941C35.8817 40.1552 35.7252 39.9515 35.5111 39.8272C35.2969 39.7029 35.0424 39.6681 34.8028 39.7303C34.6843 39.7601 34.5728 39.813 34.4748 39.886C34.3768 39.9591 34.2942 40.0508 34.2318 40.1559C34.1694 40.261 34.1284 40.3774 34.1112 40.4984C34.094 40.6194 34.1009 40.7426 34.1316 40.861L35.0691 44.4235C35.1328 44.6631 35.2891 44.8676 35.5036 44.992C35.718 45.1165 35.9731 45.1507 36.2128 45.0872C36.3314 45.0575 36.4429 45.0045 36.5409 44.9315C36.6389 44.8585 36.7215 44.7668 36.7839 44.6617C36.8463 44.5566 36.8872 44.4401 36.9044 44.3191C36.9216 44.1981 36.9147 44.0749 36.8841 43.9566ZM30 39.7013C29.4825 39.7013 29.0625 40.1156 29.0625 40.6275V44.19C29.0625 44.7028 29.4825 45.1181 30 45.1181C30.5175 45.1181 30.9375 44.7028 30.9375 44.19V40.6275C30.9368 40.5051 30.9119 40.3841 30.8644 40.2713C30.8169 40.1586 30.7476 40.0562 30.6606 39.9702C30.5735 39.8842 30.4704 39.8162 30.357 39.77C30.2437 39.7239 30.1224 39.7005 30 39.7013ZM23.1591 46.6725C22.9265 46.5863 22.6693 46.5955 22.4435 46.6981C22.2177 46.8006 22.0416 46.9882 21.9534 47.22L20.6203 50.7825C20.5778 50.897 20.5584 51.0187 20.5632 51.1407C20.568 51.2627 20.597 51.3825 20.6484 51.4932C20.6999 51.604 20.7728 51.7034 20.8629 51.7858C20.953 51.8681 21.0585 51.9318 21.1734 51.9731C21.4058 52.0598 21.6631 52.0508 21.8889 51.9482C22.1147 51.8456 22.2906 51.6577 22.3781 51.4256L23.7122 47.8631C23.7547 47.7487 23.7741 47.627 23.7693 47.505C23.7645 47.383 23.7355 47.2631 23.6841 47.1524C23.6326 47.0417 23.5597 46.9423 23.4696 46.8599C23.3795 46.7775 23.274 46.7138 23.1591 46.6725ZM38.0466 47.22C37.959 46.9877 37.7829 46.7997 37.5569 46.697C37.3309 46.5944 37.0734 46.5856 36.8409 46.6725C36.7261 46.7138 36.6205 46.7775 36.5304 46.8599C36.4403 46.9423 36.3674 47.0417 36.3159 47.1524C36.2645 47.2631 36.2355 47.383 36.2307 47.505C36.2259 47.627 36.2453 47.7487 36.2878 47.8631L37.6209 51.4256C37.7085 51.6577 37.8844 51.8456 38.1102 51.9482C38.336 52.0508 38.5932 52.0598 38.8256 51.9731C38.9405 51.9318 39.0461 51.8681 39.1362 51.7858C39.2263 51.7034 39.2992 51.604 39.3506 51.4932C39.4021 51.3825 39.431 51.2627 39.4359 51.1407C39.4407 51.0187 39.4213 50.897 39.3787 50.7825L38.0466 47.22ZM30 46.6144C29.4825 46.6144 29.0625 47.0288 29.0625 47.5416V51.1041C29.0625 51.6169 29.4825 52.0313 30 52.0313C30.5175 52.0313 30.9375 51.6169 30.9375 51.1041V47.5416C30.9369 47.4191 30.9121 47.298 30.8647 47.1851C30.8172 47.0722 30.748 46.9698 30.6609 46.8837C30.5739 46.7976 30.4707 46.7295 30.3573 46.6833C30.2439 46.6371 30.1225 46.6137 30 46.6144Z" fill="#A3887B"/>
</svg>
