<svg width="42" height="60" viewBox="0 0 42 60" fill="none" xmlns="http://www.w3.org/2000/svg">
<path d="M38.0559 0H3.94406C2.99787 0.00124026 2.09078 0.377664 1.42172 1.04672C0.752664 1.71578 0.37624 2.62287 0.375 3.56906V56.4309C0.37624 57.3771 0.752664 58.2842 1.42172 58.9533C2.09078 59.6223 2.99787 59.9988 3.94406 60H38.0559C39.0021 59.9988 39.9092 59.6223 40.5783 58.9533C41.2473 58.2842 41.6238 57.3771 41.625 56.4309V3.56906C41.6238 2.62287 41.2473 1.71578 40.5783 1.04672C39.9092 0.377664 39.0021 0.00124026 38.0559 0ZM39.75 56.4309C39.7493 56.88 39.5705 57.3105 39.253 57.628C38.9355 57.9455 38.505 58.1243 38.0559 58.125H3.94406C3.495 58.1243 3.06454 57.9455 2.747 57.628C2.42946 57.3105 2.25074 56.88 2.25 56.4309V3.56906C2.25074 3.12 2.42946 2.68954 2.747 2.372C3.06454 2.05446 3.495 1.87574 3.94406 1.875H38.0559C38.505 1.87574 38.9355 2.05446 39.253 2.372C39.5705 2.68954 39.7493 3.12 39.75 3.56906V56.4309Z" fill="#A3887B"/>
<path d="M36.9375 3.75H5.0625C4.81386 3.75 4.5754 3.84877 4.39959 4.02459C4.22377 4.2004 4.125 4.43886 4.125 4.6875V55.3125C4.125 55.5611 4.22377 55.7996 4.39959 55.9754C4.5754 56.1512 4.81386 56.25 5.0625 56.25H36.9375C37.1861 56.25 37.4246 56.1512 37.6004 55.9754C37.7762 55.7996 37.875 55.5611 37.875 55.3125V4.6875C37.875 4.43886 37.7762 4.2004 37.6004 4.02459C37.4246 3.84877 37.1861 3.75 36.9375 3.75ZM36 54.375H6V5.625H36V54.375Z" fill="#A3887B"/>
<path d="M11.8997 37.7746L28.7747 20.8996L30.1003 22.2252L13.2253 39.1002L11.8997 37.7746ZM16.5872 38.7112L25.0247 30.2737L26.3512 31.6002L17.9137 40.0377L16.5872 38.7112ZM14.7122 29.3362L24.0872 19.9612L25.4128 21.2877L16.0378 30.6627L14.7122 29.3362Z" fill="#A3887B"/>
</svg>
