<svg width="60" height="60" viewBox="0 0 60 60" fill="none" xmlns="http://www.w3.org/2000/svg">
<path fill-rule="evenodd" clip-rule="evenodd" d="M28.74 10C29.0715 10 29.3895 10.1317 29.6239 10.3661C29.8583 10.6005 29.99 10.9185 29.99 11.25C29.99 12.92 29.6675 13.8925 28.83 15.2325C27.9825 16.4725 27.425 17.3825 27.49 18.75C27.455 19.9925 27.83 20.79 28.5325 21.8175C29.5925 23.4175 29.99 24.4125 29.99 26.25C29.99 27.91 29.665 28.875 28.8275 30.1825C27.9775 31.3975 27.4275 32.28 27.49 33.645C27.455 34.8825 27.8325 35.7025 28.5325 36.745C29.5925 38.38 29.99 39.3875 29.99 41.25C29.99 41.5815 29.8583 41.8995 29.6239 42.1339C29.3895 42.3683 29.0715 42.5 28.74 42.5C28.4085 42.5 28.0905 42.3683 27.8561 42.1339C27.6217 41.8995 27.49 41.5815 27.49 41.25C27.525 39.995 27.145 39.1725 26.4425 38.12C25.385 36.4925 24.9925 35.49 24.9925 33.645C24.9925 31.97 25.3175 30.995 26.1575 29.6825C27 28.475 27.5575 27.595 27.49 26.25C27.525 25.025 27.1525 24.23 26.455 23.2125C25.39 21.6075 24.99 20.605 24.99 18.75C24.99 17.08 25.315 16.1075 26.15 14.7675C26.995 13.5275 27.555 12.615 27.49 11.25C27.49 10.9185 27.6217 10.6005 27.8561 10.3661C28.0905 10.1317 28.4085 10 28.74 10ZM13.74 10C14.0715 10 14.3895 10.1317 14.6239 10.3661C14.8583 10.6005 14.99 10.9185 14.99 11.25C14.99 12.92 14.6675 13.8925 13.83 15.2325C12.9825 16.4725 12.425 17.3825 12.49 18.75C12.455 19.9925 12.83 20.79 13.5325 21.8175C14.5925 23.4175 14.99 24.4125 14.99 26.25C14.99 27.91 14.665 28.875 13.8275 30.1825C12.9775 31.3975 12.4275 32.28 12.49 33.645C12.455 34.8825 12.8325 35.7025 13.5325 36.745C14.5925 38.38 14.99 39.3875 14.99 41.25C14.99 41.5815 14.8583 41.8995 14.6239 42.1339C14.3895 42.3683 14.0715 42.5 13.74 42.5C13.4085 42.5 13.0905 42.3683 12.8561 42.1339C12.6217 41.8995 12.49 41.5815 12.49 41.25C12.525 39.995 12.145 39.1725 11.4425 38.12C10.385 36.4925 9.99249 35.49 9.99249 33.645C9.99249 31.97 10.3175 30.995 11.1575 29.6825C12 28.475 12.5575 27.595 12.49 26.25C12.525 25.025 12.1525 24.23 11.455 23.2125C10.39 21.6075 9.98999 20.605 9.98999 18.75C9.98999 17.08 10.315 16.1075 11.15 14.7675C11.995 13.5275 12.555 12.615 12.49 11.25C12.49 10.9185 12.6217 10.6005 12.8561 10.3661C13.0905 10.1317 13.4085 10 13.74 10ZM43.74 10C44.0715 10 44.3895 10.1317 44.6239 10.3661C44.8583 10.6005 44.99 10.9185 44.99 11.25C44.99 12.92 44.6675 13.8925 43.83 15.2325C42.9825 16.4725 42.425 17.3825 42.49 18.75C42.455 19.9925 42.83 20.79 43.5325 21.8175C44.5925 23.4175 44.99 24.4125 44.99 26.25C44.99 27.91 44.665 28.875 43.8275 30.1825C42.9775 31.3975 42.4275 32.28 42.49 33.645C42.455 34.8825 42.8325 35.7025 43.5325 36.745C44.5925 38.38 44.99 39.3875 44.99 41.25C44.99 41.5815 44.8583 41.8995 44.6239 42.1339C44.3895 42.3683 44.0715 42.5 43.74 42.5C43.4085 42.5 43.0905 42.3683 42.8561 42.1339C42.6217 41.8995 42.49 41.5815 42.49 41.25C42.525 39.995 42.145 39.1725 41.4425 38.12C40.385 36.4925 39.9925 35.49 39.9925 33.645C39.9925 31.97 40.3175 30.995 41.1575 29.6825C42 28.475 42.5575 27.595 42.49 26.25C42.525 25.025 42.1525 24.23 41.455 23.2125C40.39 21.6075 39.99 20.605 39.99 18.75C39.99 17.08 40.315 16.1075 41.15 14.7675C41.995 13.5275 42.555 12.615 42.49 11.25C42.49 10.9185 42.6217 10.6005 42.8561 10.3661C43.0905 10.1317 43.4085 10 43.74 10ZM46.24 47.5C46.5715 47.5 46.8895 47.6317 47.1239 47.8661C47.3583 48.1005 47.49 48.4185 47.49 48.75C47.49 49.0815 47.3583 49.3995 47.1239 49.6339C46.8895 49.8683 46.5715 50 46.24 50H11.24C10.9085 50 10.5905 49.8683 10.3561 49.6339C10.1217 49.3995 9.98999 49.0815 9.98999 48.75C9.98999 48.4185 10.1217 48.1005 10.3561 47.8661C10.5905 47.6317 10.9085 47.5 11.24 47.5H46.24Z" fill="#A3887B"/>
</svg>
