<svg width="108" height="860" viewBox="0 0 108 860" fill="none" xmlns="http://www.w3.org/2000/svg">
<mask id="path-1-inside-1_19_650" fill="white">
<path fill-rule="evenodd" clip-rule="evenodd" d="M106.574 0C40.4313 118.574 1.00002 267.826 1.00002 430C1.00002 592.174 40.4313 741.426 106.574 860L105.429 860C39.3596 741.343 1.90735e-05 592.106 1.90735e-05 430C1.90735e-05 267.894 39.3596 118.657 105.429 0H106.574Z"/>
</mask>
<path fill-rule="evenodd" clip-rule="evenodd" d="M106.574 0C40.4313 118.574 1.00002 267.826 1.00002 430C1.00002 592.174 40.4313 741.426 106.574 860L105.429 860C39.3596 741.343 1.90735e-05 592.106 1.90735e-05 430C1.90735e-05 267.894 39.3596 118.657 105.429 0H106.574Z" fill="#FFFBF9"/>
<path d="M106.574 0L107.448 0.487154L108.277 -1H106.574V0ZM106.574 860L106.574 861L108.277 861L107.448 859.513L106.574 860ZM105.429 860L104.556 860.486L104.842 861L105.429 861L105.429 860ZM105.429 0V-1H104.842L104.556 -0.486482L105.429 0ZM105.701 -0.487154C39.4689 118.246 1.90735e-05 267.668 1.90735e-05 430H2.00002C2.00002 267.983 41.3937 118.901 107.448 0.487154L105.701 -0.487154ZM1.90735e-05 430C1.90735e-05 592.332 39.4689 741.754 105.701 860.487L107.448 859.513C41.3937 741.099 2.00002 592.017 2.00002 430H1.90735e-05ZM106.574 859L105.429 859L105.429 861L106.574 861L106.574 859ZM-0.999981 430C-0.999981 592.264 38.3971 741.67 104.556 860.486L106.303 859.514C40.3221 741.016 1.00002 591.949 1.00002 430H-0.999981ZM104.556 -0.486482C38.3971 118.33 -0.999981 267.736 -0.999981 430H1.00002C1.00002 268.051 40.3221 118.984 106.303 0.486482L104.556 -0.486482ZM105.429 1H106.574V-1H105.429V1Z" fill="#DACFCA" mask="url(#path-1-inside-1_19_650)"/>
</svg>
