<svg width="108" height="860" viewBox="0 0 108 860" fill="none" xmlns="http://www.w3.org/2000/svg">
<mask id="path-1-inside-1_19_638" fill="white">
<path fill-rule="evenodd" clip-rule="evenodd" d="M1.42582 860C67.5687 741.426 107 592.174 107 430C107 267.826 67.5687 118.574 1.4258 0L2.57065 0C68.6405 118.657 108 267.894 108 430C108 592.106 68.6405 741.343 2.57066 860H1.42582Z"/>
</mask>
<path fill-rule="evenodd" clip-rule="evenodd" d="M1.42582 860C67.5687 741.426 107 592.174 107 430C107 267.826 67.5687 118.574 1.4258 0L2.57065 0C68.6405 118.657 108 267.894 108 430C108 592.106 68.6405 741.343 2.57066 860H1.42582Z" fill="#FFFBF9"/>
<path d="M1.42582 860L0.552506 859.513L-0.27706 861H1.42582V860ZM1.4258 0L1.4258 -1L-0.277082 -1L0.552484 0.487154L1.4258 0ZM2.57065 0L3.44434 -0.486482L3.15841 -1L2.57065 -1L2.57065 0ZM2.57066 860V861H3.15841L3.44435 860.486L2.57066 860ZM2.29914 860.487C68.5311 741.754 108 592.332 108 430H106C106 592.017 66.6063 741.099 0.552506 859.513L2.29914 860.487ZM108 430C108 267.668 68.5311 118.246 2.29912 -0.487154L0.552484 0.487154C66.6063 118.901 106 267.983 106 430H108ZM1.4258 1L2.57065 1L2.57065 -1L1.4258 -1L1.4258 1ZM109 430C109 267.736 69.603 118.33 3.44434 -0.486482L1.69696 0.486482C67.678 118.984 107 268.051 107 430H109ZM3.44435 860.486C69.603 741.67 109 592.264 109 430H107C107 591.949 67.678 741.016 1.69696 859.514L3.44435 860.486ZM2.57066 859H1.42582V861H2.57066V859Z" fill="#DACFCA" mask="url(#path-1-inside-1_19_638)"/>
</svg>
