<svg width="60" height="60" viewBox="0 0 60 60" fill="none" xmlns="http://www.w3.org/2000/svg">
<path d="M12.9267 6.93568C13.6561 5.72912 15.4064 5.72912 16.1358 6.93568L21.427 15.6872C21.5129 15.8294 21.5595 15.9919 21.5619 16.1579C21.5644 16.324 21.5227 16.4878 21.4411 16.6324C21.3596 16.7771 21.241 16.8975 21.0976 16.9813C20.9542 17.0651 20.7911 17.1094 20.625 17.1094H17.8125V20.8594C17.8125 21.1081 17.7137 21.3465 17.5379 21.5223C17.3621 21.6982 17.1236 21.7969 16.875 21.7969C16.6264 21.7969 16.3879 21.6982 16.2121 21.5223C16.0363 21.3465 15.9375 21.1081 15.9375 20.8594V16.1719C15.9375 15.9233 16.0363 15.6848 16.2121 15.509C16.3879 15.3332 16.6264 15.2344 16.875 15.2344H18.9628L14.5312 7.90553L10.0997 15.2344H12.4219C12.6705 15.2344 12.909 15.3332 13.0848 15.509C13.2606 15.6848 13.3594 15.9233 13.3594 16.1719V25.0782C13.3594 25.3268 13.2606 25.5653 13.0848 25.7411C12.909 25.9169 12.6705 26.0157 12.4219 26.0157C12.1732 26.0157 11.9348 25.9169 11.759 25.7411C11.5831 25.5653 11.4844 25.3268 11.4844 25.0782V17.1094H8.4375C8.27129 17.1095 8.10806 17.0654 7.96453 16.9816C7.82099 16.8978 7.70231 16.7773 7.62065 16.6325C7.539 16.4878 7.49729 16.3239 7.49981 16.1577C7.50233 15.9915 7.54899 15.829 7.635 15.6868L12.9267 6.93568ZM31.6045 6.93568C30.8752 5.72912 29.1248 5.72912 28.3955 6.93568L23.1047 15.6872C23.0188 15.8294 22.9723 15.9918 22.9698 16.1578C22.9673 16.3239 23.0089 16.4876 23.0905 16.6322C23.172 16.7769 23.2905 16.8973 23.4338 16.9812C23.5772 17.065 23.7402 17.1093 23.9062 17.1094H26.9531V25.0782C26.9531 25.3268 27.0519 25.5653 27.2277 25.7411C27.4035 25.9169 27.642 26.0157 27.8906 26.0157C28.1393 26.0157 28.3777 25.9169 28.5535 25.7411C28.7294 25.5653 28.8281 25.3268 28.8281 25.0782V16.1719C28.8281 15.9233 28.7294 15.6848 28.5535 15.509C28.3777 15.3332 28.1393 15.2344 27.8906 15.2344H25.5684L30 7.90553L34.4316 15.2344H32.3438C32.0951 15.2344 31.8567 15.3332 31.6808 15.509C31.505 15.6848 31.4062 15.9233 31.4062 16.1719V20.8594C31.4062 21.1081 31.505 21.3465 31.6808 21.5223C31.8567 21.6982 32.0951 21.7969 32.3438 21.7969C32.5924 21.7969 32.8308 21.6982 33.0067 21.5223C33.1825 21.3465 33.2812 21.1081 33.2812 20.8594V17.1094H36.0938C36.2599 17.1094 36.4231 17.0652 36.5666 16.9814C36.71 16.8975 36.8286 16.7771 36.9102 16.6323C36.9918 16.4876 37.0335 16.3237 37.031 16.1576C37.0284 15.9915 36.9818 15.829 36.8958 15.6868L31.6045 6.93568ZM47.0733 6.93568C46.3439 5.72912 44.5936 5.72912 43.8642 6.93568L38.5734 15.6872C38.4876 15.8294 38.441 15.9918 38.4385 16.1578C38.436 16.3239 38.4777 16.4876 38.5592 16.6322C38.6407 16.7769 38.7592 16.8973 38.9026 16.9812C39.0459 17.065 39.2089 17.1093 39.375 17.1094H42.4219V25.0782C42.4219 25.3268 42.5206 25.5653 42.6965 25.7411C42.8723 25.9169 43.1107 26.0157 43.3594 26.0157C43.608 26.0157 43.8465 25.9169 44.0223 25.7411C44.1981 25.5653 44.2969 25.3268 44.2969 25.0782V16.1719C44.2969 15.9233 44.1981 15.6848 44.0223 15.509C43.8465 15.3332 43.608 15.2344 43.3594 15.2344H41.0372L45.4688 7.90553L49.9003 15.2344H47.8125C47.5639 15.2344 47.3254 15.3332 47.1496 15.509C46.9738 15.6848 46.875 15.9233 46.875 16.1719V20.8594C46.875 21.1081 46.9738 21.3465 47.1496 21.5223C47.3254 21.6982 47.5639 21.7969 47.8125 21.7969C48.0611 21.7969 48.2996 21.6982 48.4754 21.5223C48.6512 21.3465 48.75 21.1081 48.75 20.8594V17.1094H51.5625C51.7287 17.1096 51.892 17.0654 52.0355 16.9816C52.1791 16.8979 52.2978 16.7774 52.3794 16.6326C52.461 16.4878 52.5027 16.3239 52.5001 16.1577C52.4975 15.9915 52.4507 15.8289 52.3645 15.6868L47.0733 6.93568ZM12.5391 28.8282C8.97938 28.8282 6.09375 31.7138 6.09375 35.2735C6.09375 38.8332 8.97938 41.7188 12.5391 41.7188H48.2812C50.8702 41.7188 52.9688 43.8174 52.9688 46.4063C52.9688 48.9952 50.8702 51.0938 48.2812 51.0938H7.03125C6.78261 51.0938 6.54415 51.1926 6.36834 51.3684C6.19252 51.5442 6.09375 51.7827 6.09375 52.0313C6.09375 52.2799 6.19252 52.5184 6.36834 52.6942C6.54415 52.87 6.78261 52.9688 7.03125 52.9688H48.2812C51.9056 52.9688 54.8438 50.0307 54.8438 46.4063C54.8438 42.7819 51.9056 39.8438 48.2812 39.8438H12.5391C10.0148 39.8438 7.96875 37.7977 7.96875 35.2735C7.96875 32.7493 10.0148 30.7032 12.5391 30.7032H53.9062C54.1549 30.7032 54.3933 30.6044 54.5692 30.4286C54.745 30.2528 54.8438 30.0143 54.8438 29.7657C54.8438 29.517 54.745 29.2786 54.5692 29.1028C54.3933 28.927 54.1549 28.8282 53.9062 28.8282H12.5391Z" fill="#A3887B"/>
</svg>
