<svg width="60" height="60" viewBox="0 0 60 60" fill="none" xmlns="http://www.w3.org/2000/svg">
<g clip-path="url(#clip0_7_348)">
<path fill-rule="evenodd" clip-rule="evenodd" d="M59.051 48.6117H52.0211V52.0212C52.0211 54.1301 50.3691 55.7822 48.2601 55.7822C46.2566 55.7822 44.5343 54.0598 44.5343 52.0212V48.6117H15.4657V52.0212C15.4657 54.0598 13.7434 55.7822 11.7047 55.7822C9.63093 55.7822 7.97891 54.1301 7.97891 52.0212V48.6117H5.37786C2.42531 48.6117 0 46.2215 0 43.2338C0 40.3164 2.42531 37.9614 5.37786 37.9614H7.97891V30.9315H5.37786C2.42531 30.9315 0 28.5062 0 25.5537C0 22.566 2.42531 20.1407 5.37786 20.1407H7.97891V13.2514H0.949033C0.421793 13.2514 0 12.8296 0 12.3024C0 11.7751 0.421793 11.3533 0.949033 11.3533H7.97891V7.979C7.97891 5.87004 9.63093 4.21802 11.7047 4.21802C13.7434 4.21802 15.4657 5.94034 15.4657 7.979V11.3533H44.5343V7.979C44.5343 5.94034 46.2566 4.21802 48.2601 4.21802C50.3691 4.21802 52.0211 5.87004 52.0211 7.979V11.3533H54.587C57.5747 11.3533 60 13.7787 60 16.7663C60 19.6486 57.5747 22.0388 54.587 22.0388H52.0211V29.0686H54.587C57.5747 29.0686 60 31.4588 60 34.4465C60 37.4342 57.5747 39.8243 54.587 39.8243H52.0211V46.7488H59.051C59.5782 46.7488 60 47.1706 60 47.6978C60 48.1899 59.5782 48.6117 59.051 48.6117ZM44.5343 46.7488V39.8243H15.4657V46.7488H44.5343ZM44.5343 37.9614V30.9315H15.4657V37.9614H44.5343ZM44.5343 29.0686V22.0388H15.4657V29.0686H44.5343ZM44.5343 20.1407V13.2514H15.4657V20.1407H44.5343ZM52.0211 13.2514V20.1407H54.587C56.5202 20.1407 58.1019 18.5941 58.1019 16.7663C58.1019 14.8331 56.5202 13.2514 54.587 13.2514H52.0211ZM52.0211 30.9315V37.9614H54.587C56.5202 37.9614 58.1019 36.3797 58.1019 34.4465C58.1019 32.5133 56.5202 30.9315 54.587 30.9315H52.0211ZM48.2601 6.08094C47.2759 6.08094 46.3972 6.95967 46.3972 7.979V52.0212C46.3972 53.0054 47.2759 53.8841 48.2601 53.8841C49.3497 53.8841 50.1582 53.0757 50.1582 52.0212V7.979C50.1582 6.88937 49.3497 6.08094 48.2601 6.08094ZM7.97891 46.7488V39.8243H5.37786C3.47979 39.8243 1.86292 41.4061 1.86292 43.2338C1.86292 45.167 3.44464 46.7488 5.37786 46.7488H7.97891ZM7.97891 29.0686V22.0388H5.37786C3.44464 22.0388 1.86292 23.6205 1.86292 25.5537C1.86292 27.4869 3.44464 29.0686 5.37786 29.0686H7.97891ZM11.7047 6.08094C10.6503 6.08094 9.84183 6.88937 9.84183 7.979V52.0212C9.84183 53.0757 10.6503 53.8841 11.7047 53.8841C12.7241 53.8841 13.6028 53.0054 13.6028 52.0212V7.979C13.6028 6.95967 12.7241 6.08094 11.7047 6.08094Z" fill="#A3887B"/>
</g>
<defs>
<clipPath id="clip0_7_348">
<rect width="60" height="60" fill="white"/>
</clipPath>
</defs>
</svg>
